<?xml version="1.0" encoding="UTF-8" standalone="no"?><svg xmlns="http://www.w3.org/2000/svg" xmlns:xlink="http://www.w3.org/1999/xlink" contentScriptType="application/ecmascript" contentStyleType="text/css" height="979px" preserveAspectRatio="none" style="width:1892px;height:979px;" version="1.1" viewBox="0 0 1892 979" width="1892px" zoomAndPan="magnify"><defs/><g><text fill="#000000" font-family="Arial" font-size="18" lengthAdjust="spacingAndGlyphs" textLength="479" x="705.5" y="26.708">Foundgine.Postgres.Vector — PostgresVectorE2ETests</text><text fill="#000000" font-family="Arial" font-size="18" lengthAdjust="spacingAndGlyphs" textLength="702" x="594" y="47.6611">Real PostgreSQL 17 + pgvector physical proof of the lexical grounding pipeline</text><line style="stroke: #A80036; stroke-width: 1.0; stroke-dasharray: 5.0,5.0;" x1="26" x2="26" y1="138.2031" y2="890.0547"/><line style="stroke: #A80036; stroke-width: 1.0; stroke-dasharray: 5.0,5.0;" x1="244.5" x2="244.5" y1="138.2031" y2="890.0547"/><line style="stroke: #A80036; stroke-width: 1.0; stroke-dasharray: 5.0,5.0;" x1="437.5" x2="437.5" y1="138.2031" y2="890.0547"/><line style="stroke: #A80036; stroke-width: 1.0; stroke-dasharray: 5.0,5.0;" x1="662.5" x2="662.5" y1="138.2031" y2="890.0547"/><line style="stroke: #A80036; stroke-width: 1.0; stroke-dasharray: 5.0,5.0;" x1="893.5" x2="893.5" y1="138.2031" y2="890.0547"/><line style="stroke: #A80036; stroke-width: 1.0; stroke-dasharray: 5.0,5.0;" x1="1165.5" x2="1165.5" y1="138.2031" y2="890.0547"/><line style="stroke: #A80036; stroke-width: 1.0; stroke-dasharray: 5.0,5.0;" x1="1394" x2="1394" y1="138.2031" y2="890.0547"/><line style="stroke: #A80036; stroke-width: 1.0; stroke-dasharray: 5.0,5.0;" x1="1600.5" x2="1600.5" y1="138.2031" y2="890.0547"/><text fill="#000000" font-family="Arial" font-size="14" lengthAdjust="spacingAndGlyphs" textLength="31" x="8" y="134.9014">Test</text><ellipse cx="26.5" cy="68.9063" fill="#FEFECE" rx="8" ry="8" style="stroke: #A80036; stroke-width: 2.0;"/><path d="M26.5,76.9063 L26.5,103.9063 M13.5,84.9063 L39.5,84.9063 M26.5,103.9063 L13.5,118.9063 M26.5,103.9063 L39.5,118.9063 " fill="none" style="stroke: #A80036; stroke-width: 2.0;"/><text fill="#000000" font-family="Arial" font-size="14" lengthAdjust="spacingAndGlyphs" textLength="31" x="8" y="902.0498">Test</text><ellipse cx="26.5" cy="915.3516" fill="#FEFECE" rx="8" ry="8" style="stroke: #A80036; stroke-width: 2.0;"/><path d="M26.5,923.3516 L26.5,950.3516 M13.5,931.3516 L39.5,931.3516 M26.5,950.3516 L13.5,965.3516 M26.5,950.3516 L39.5,965.3516 " fill="none" style="stroke: #A80036; stroke-width: 2.0;"/><rect fill="#FFFFFF" height="30.2969" style="stroke: #55506A; stroke-width: 1.5;" width="168" x="160.5" y="106.9063"/><text fill="#000000" font-family="Arial" font-size="14" lengthAdjust="spacingAndGlyphs" textLength="154" x="167.5" y="126.9014">SemanticModelBuilder</text><rect fill="#FFFFFF" height="30.2969" style="stroke: #55506A; stroke-width: 1.5;" width="168" x="160.5" y="889.0547"/><text fill="#000000" font-family="Arial" font-size="14" lengthAdjust="spacingAndGlyphs" textLength="154" x="167.5" y="909.0498">SemanticModelBuilder</text><rect fill="#FFFFFF" height="30.2969" style="stroke: #55506A; stroke-width: 1.5;" width="199" x="338.5" y="106.9063"/><text fill="#000000" font-family="Arial" font-size="14" lengthAdjust="spacingAndGlyphs" textLength="185" x="345.5" y="126.9014">SemanticLexiconProjection</text><rect fill="#FFFFFF" height="30.2969" style="stroke: #55506A; stroke-width: 1.5;" width="199" x="338.5" y="889.0547"/><text fill="#000000" font-family="Arial" font-size="14" lengthAdjust="spacingAndGlyphs" textLength="185" x="345.5" y="909.0498">SemanticLexiconProjection</text><rect fill="#FFFFFF" height="46.5938" style="stroke: #55506A; stroke-width: 1.5;" width="231" x="547.5" y="90.6094"/><text fill="#000000" font-family="Arial" font-size="14" lengthAdjust="spacingAndGlyphs" textLength="216" x="555" y="110.6045">ISemanticEmbeddingGenerator</text><text fill="#000000" font-family="Arial" font-size="14" lengthAdjust="spacingAndGlyphs" textLength="217" x="554.5" y="126.9014">(HashedBagOfWords, test-only)</text><rect fill="#FFFFFF" height="46.5938" style="stroke: #55506A; stroke-width: 1.5;" width="231" x="547.5" y="889.0547"/><text fill="#000000" font-family="Arial" font-size="14" lengthAdjust="spacingAndGlyphs" textLength="216" x="555" y="909.0498">ISemanticEmbeddingGenerator</text><text fill="#000000" font-family="Arial" font-size="14" lengthAdjust="spacingAndGlyphs" textLength="217" x="554.5" y="925.3467">(HashedBagOfWords, test-only)</text><rect fill="#FFFFFF" height="46.5938" style="stroke: #55506A; stroke-width: 1.5;" width="193" x="797.5" y="90.6094"/><text fill="#000000" font-family="Arial" font-size="14" lengthAdjust="spacingAndGlyphs" textLength="179" x="804.5" y="110.6045">PgVectorSemanticLexicon</text><text fill="#000000" font-family="Arial" font-size="14" lengthAdjust="spacingAndGlyphs" textLength="76" x="856" y="126.9014">IndexClient</text><rect fill="#FFFFFF" height="46.5938" style="stroke: #55506A; stroke-width: 1.5;" width="193" x="797.5" y="889.0547"/><text fill="#000000" font-family="Arial" font-size="14" lengthAdjust="spacingAndGlyphs" textLength="179" x="804.5" y="909.0498">PgVectorSemanticLexicon</text><text fill="#000000" font-family="Arial" font-size="14" lengthAdjust="spacingAndGlyphs" textLength="76" x="856" y="925.3467">IndexClient</text><text fill="#000000" font-family="Arial" font-size="14" lengthAdjust="spacingAndGlyphs" textLength="103" x="1111.5" y="118.6045">PostgreSQL 17</text><text fill="#000000" font-family="Arial" font-size="14" lengthAdjust="spacingAndGlyphs" textLength="149" x="1088.5" y="134.9014">+ pgvector extension</text><path d="M1148,69.6094 C1148,59.6094 1166,59.6094 1166,59.6094 C1166,59.6094 1184,59.6094 1184,69.6094 L1184,95.6094 C1184,105.6094 1166,105.6094 1166,105.6094 C1166,105.6094 1148,105.6094 1148,95.6094 L1148,69.6094 " fill="#FEFECE" style="stroke: #000000; stroke-width: 1.5;"/><path d="M1148,69.6094 C1148,79.6094 1166,79.6094 1166,79.6094 C1166,79.6094 1184,79.6094 1184,69.6094 " fill="none" style="stroke: #000000; stroke-width: 1.5;"/><text fill="#000000" font-family="Arial" font-size="14" lengthAdjust="spacingAndGlyphs" textLength="103" x="1111.5" y="902.0498">PostgreSQL 17</text><text fill="#000000" font-family="Arial" font-size="14" lengthAdjust="spacingAndGlyphs" textLength="149" x="1088.5" y="918.3467">+ pgvector extension</text><path d="M1148,931.6484 C1148,921.6484 1166,921.6484 1166,921.6484 C1166,921.6484 1184,921.6484 1184,931.6484 L1184,957.6484 C1184,967.6484 1166,967.6484 1166,967.6484 C1166,967.6484 1148,967.6484 1148,957.6484 L1148,931.6484 " fill="#FEFECE" style="stroke: #000000; stroke-width: 1.5;"/><path d="M1148,931.6484 C1148,941.6484 1166,941.6484 1166,941.6484 C1166,941.6484 1184,941.6484 1184,931.6484 " fill="none" style="stroke: #000000; stroke-width: 1.5;"/><rect fill="#FFFFFF" height="46.5938" style="stroke: #55506A; stroke-width: 1.5;" width="186" x="1301" y="90.6094"/><text fill="#000000" font-family="Arial" font-size="14" lengthAdjust="spacingAndGlyphs" textLength="172" x="1308" y="110.6045">PgVectorSemanticLexical</text><text fill="#000000" font-family="Arial" font-size="14" lengthAdjust="spacingAndGlyphs" textLength="119" x="1334.5" y="126.9014">CandidateSource</text><rect fill="#FFFFFF" height="46.5938" style="stroke: #55506A; stroke-width: 1.5;" width="186" x="1301" y="889.0547"/><text fill="#000000" font-family="Arial" font-size="14" lengthAdjust="spacingAndGlyphs" textLength="172" x="1308" y="909.0498">PgVectorSemanticLexical</text><text fill="#000000" font-family="Arial" font-size="14" lengthAdjust="spacingAndGlyphs" textLength="119" x="1334.5" y="925.3467">CandidateSource</text><rect fill="#FFFFFF" height="30.2969" style="stroke: #55506A; stroke-width: 1.5;" width="183" x="1509.5" y="106.9063"/><text fill="#000000" font-family="Arial" font-size="14" lengthAdjust="spacingAndGlyphs" textLength="169" x="1516.5" y="126.9014">SemanticLexicalResolver</text><rect fill="#FFFFFF" height="30.2969" style="stroke: #55506A; stroke-width: 1.5;" width="183" x="1509.5" y="889.0547"/><text fill="#000000" font-family="Arial" font-size="14" lengthAdjust="spacingAndGlyphs" textLength="169" x="1516.5" y="909.0498">SemanticLexicalResolver</text><polygon fill="#55506A" points="232.5,180.4688,242.5,184.4688,232.5,188.4688,236.5,184.4688" style="stroke: #55506A; stroke-width: 1.0;"/><line style="stroke: #55506A; stroke-width: 1.0;" x1="26.5" x2="238.5" y1="184.4688" y2="184.4688"/><text fill="#000000" font-family="Arial" font-size="13" lengthAdjust="spacingAndGlyphs" textLength="194" x="38.5" y="164.27">build Customer/Order contract</text><text fill="#000000" font-family="Arial" font-size="13" lengthAdjust="spacingAndGlyphs" textLength="146" x="62.5" y="179.4028">(+ Orders relationship)</text><polygon fill="#55506A" points="37.5,209.6016,27.5,213.6016,37.5,217.6016,33.5,213.6016" style="stroke: #55506A; stroke-width: 1.0;"/><line style="stroke: #55506A; stroke-width: 1.0;" x1="31.5" x2="243.5" y1="213.6016" y2="213.6016"/><text fill="#000000" font-family="Arial" font-size="13" lengthAdjust="spacingAndGlyphs" textLength="177" x="47" y="208.5356">SemanticContractSnapshot</text><polygon fill="#55506A" points="882,238.7344,892,242.7344,882,246.7344,886,242.7344" style="stroke: #55506A; stroke-width: 1.0;"/><line style="stroke: #55506A; stroke-width: 1.0;" x1="26.5" x2="888" y1="242.7344" y2="242.7344"/><text fill="#000000" font-family="Arial" font-size="13" lengthAdjust="spacingAndGlyphs" textLength="190" x="365.25" y="237.6685">IndexContractAsync(contract)</text><polygon fill="#55506A" points="449,267.8672,439,271.8672,449,275.8672,445,271.8672" style="stroke: #55506A; stroke-width: 1.0;"/><line style="stroke: #55506A; stroke-width: 1.0;" x1="443" x2="893" y1="271.8672" y2="271.8672"/><text fill="#000000" font-family="Arial" font-size="13" lengthAdjust="spacingAndGlyphs" textLength="94" x="619" y="266.8013">Build(contract)</text><polygon fill="#55506A" points="882,312.1328,892,316.1328,882,320.1328,886,316.1328" style="stroke: #55506A; stroke-width: 1.0;"/><line style="stroke: #55506A; stroke-width: 1.0;" x1="438" x2="888" y1="316.1328" y2="316.1328"/><text fill="#000000" font-family="Arial" font-size="13" lengthAdjust="spacingAndGlyphs" textLength="92" x="620" y="295.9341">lexicon entries</text><text fill="#000000" font-family="Arial" font-size="13" lengthAdjust="spacingAndGlyphs" textLength="230" x="551" y="311.0669">(Entity, Node, Field, Relationship, ...)</text><polygon fill="#55506A" points="674,341.2656,664,345.2656,674,349.2656,670,345.2656" style="stroke: #55506A; stroke-width: 1.0;"/><line style="stroke: #55506A; stroke-width: 1.0;" x1="668" x2="893" y1="345.2656" y2="345.2656"/><text fill="#000000" font-family="Arial" font-size="13" lengthAdjust="spacingAndGlyphs" textLength="207" x="675" y="340.1997">EmbedManyAsync(searchText[])</text><polygon fill="#55506A" points="882,370.3984,892,374.3984,882,378.3984,886,374.3984" style="stroke: #55506A; stroke-width: 1.0;"/><line style="stroke: #55506A; stroke-width: 1.0;" x1="663" x2="888" y1="374.3984" y2="374.3984"/><text fill="#000000" font-family="Arial" font-size="13" lengthAdjust="spacingAndGlyphs" textLength="131" x="713" y="369.3325">float[][] embeddings</text><polygon fill="#55506A" points="1154,444.9297,1164,448.9297,1154,452.9297,1158,448.9297" style="stroke: #55506A; stroke-width: 1.0;"/><line style="stroke: #55506A; stroke-width: 1.0;" x1="894" x2="1160" y1="448.9297" y2="448.9297"/><text fill="#000000" font-family="Arial" font-size="13" lengthAdjust="spacingAndGlyphs" textLength="145" x="957.5" y="398.4653">EnsureSchemaAsync()</text><text fill="#000000" font-family="Arial" font-size="13" lengthAdjust="spacingAndGlyphs" textLength="174" x="943" y="413.5981">CREATE EXTENSION vector;</text><text fill="#000000" font-family="Arial" font-size="13" lengthAdjust="spacingAndGlyphs" textLength="177" x="941.5" y="428.731">CREATE TABLE ... vector(N);</text><text fill="#000000" font-family="Arial" font-size="13" lengthAdjust="spacingAndGlyphs" textLength="190" x="935" y="443.8638">CREATE INDEX ... USING hnsw</text><polygon fill="#55506A" points="1154,489.1953,1164,493.1953,1154,497.1953,1158,493.1953" style="stroke: #55506A; stroke-width: 1.0;"/><line style="stroke: #55506A; stroke-width: 1.0;" x1="894" x2="1160" y1="493.1953" y2="493.1953"/><text fill="#000000" font-family="Arial" font-size="13" lengthAdjust="spacingAndGlyphs" textLength="204" x="928" y="472.9966">TRUNCATE + INSERT each entry</text><text fill="#000000" font-family="Arial" font-size="13" lengthAdjust="spacingAndGlyphs" textLength="248" x="906" y="488.1294">(canonical_name, kind, embedding, ...)</text><polygon fill="#55506A" points="1382,518.3281,1392,522.3281,1382,526.3281,1386,522.3281" style="stroke: #55506A; stroke-width: 1.0;"/><line style="stroke: #55506A; stroke-width: 1.0;" x1="26.5" x2="1388" y1="522.3281" y2="522.3281"/><text fill="#000000" font-family="Arial" font-size="13" lengthAdjust="spacingAndGlyphs" textLength="153" x="633.75" y="517.2622">RetrieveAsync("Orders")</text><polygon fill="#55506A" points="674,547.4609,664,551.4609,674,555.4609,670,551.4609" style="stroke: #55506A; stroke-width: 1.0;"/><line style="stroke: #55506A; stroke-width: 1.0;" x1="668" x2="1393" y1="551.4609" y2="551.4609"/><text fill="#000000" font-family="Arial" font-size="13" lengthAdjust="spacingAndGlyphs" textLength="146" x="955.5" y="546.395">EmbedAsync("Orders")</text><polygon fill="#55506A" points="1177,591.7266,1167,595.7266,1177,599.7266,1173,595.7266" style="stroke: #55506A; stroke-width: 1.0;"/><line style="stroke: #55506A; stroke-width: 1.0;" x1="1171" x2="1393" y1="595.7266" y2="595.7266"/><text fill="#000000" font-family="Arial" font-size="13" lengthAdjust="spacingAndGlyphs" textLength="132" x="1214" y="575.5278">SELECT ... ORDER BY</text><text fill="#000000" font-family="Arial" font-size="13" lengthAdjust="spacingAndGlyphs" textLength="204" x="1178" y="590.6606">embedding &lt;=&gt; $query LIMIT n</text><polygon fill="#55506A" points="1382,620.8594,1392,624.8594,1382,628.8594,1386,624.8594" style="stroke: #55506A; stroke-width: 1.0;"/><line style="stroke: #55506A; stroke-width: 1.0;" x1="1166" x2="1388" y1="624.8594" y2="624.8594"/><text fill="#000000" font-family="Arial" font-size="13" lengthAdjust="spacingAndGlyphs" textLength="150" x="1205" y="619.7935">ranked rows + distance</text><polygon fill="#55506A" points="37.5,665.125,27.5,669.125,37.5,673.125,33.5,669.125" style="stroke: #55506A; stroke-width: 1.0;"/><line style="stroke: #55506A; stroke-width: 1.0;" x1="31.5" x2="1393" y1="669.125" y2="669.125"/><text fill="#000000" font-family="Arial" font-size="13" lengthAdjust="spacingAndGlyphs" textLength="179" x="620.75" y="648.9263">SemanticLexicalCandidate[]</text><text fill="#000000" font-family="Arial" font-size="13" lengthAdjust="spacingAndGlyphs" textLength="297" x="561.75" y="664.0591">(top match: Orders, VectorSimilarity evidence)</text><polygon fill="#55506A" points="1589,694.2578,1599,698.2578,1589,702.2578,1593,698.2578" style="stroke: #55506A; stroke-width: 1.0;"/><line style="stroke: #55506A; stroke-width: 1.0;" x1="26.5" x2="1595" y1="698.2578" y2="698.2578"/><text fill="#000000" font-family="Arial" font-size="13" lengthAdjust="spacingAndGlyphs" textLength="179" x="724.25" y="693.1919">Resolve("Customer Orders")</text><polygon fill="#55506A" points="1405,723.3906,1395,727.3906,1405,731.3906,1401,727.3906" style="stroke: #55506A; stroke-width: 1.0;"/><line style="stroke: #55506A; stroke-width: 1.0;" x1="1399" x2="1600" y1="727.3906" y2="727.3906"/><text fill="#000000" font-family="Arial" font-size="13" lengthAdjust="spacingAndGlyphs" textLength="155" x="1420" y="722.3247">RetrieveAsync(token) x2</text><polygon fill="#55506A" points="1589,752.5234,1599,756.5234,1589,760.5234,1593,756.5234" style="stroke: #55506A; stroke-width: 1.0;"/><line style="stroke: #55506A; stroke-width: 1.0;" x1="1394" x2="1595" y1="756.5234" y2="756.5234"/><text fill="#000000" font-family="Arial" font-size="13" lengthAdjust="spacingAndGlyphs" textLength="183" x="1406" y="751.4575">ranked candidates per token</text><line style="stroke: #55506A; stroke-width: 1.0;" x1="1601" x2="1643" y1="800.7891" y2="800.7891"/><line style="stroke: #55506A; stroke-width: 1.0;" x1="1643" x2="1643" y1="800.7891" y2="813.7891"/><line style="stroke: #55506A; stroke-width: 1.0;" x1="1602" x2="1643" y1="813.7891" y2="813.7891"/><polygon fill="#55506A" points="1612,809.7891,1602,813.7891,1612,817.7891,1608,813.7891" style="stroke: #55506A; stroke-width: 1.0;"/><text fill="#000000" font-family="Arial" font-size="13" lengthAdjust="spacingAndGlyphs" textLength="148" x="1608" y="780.5903">graph-constrained walk</text><text fill="#000000" font-family="Arial" font-size="13" lengthAdjust="spacingAndGlyphs" textLength="272" x="1608" y="795.7231">(SemanticContractSnapshot authoritative)</text><polygon fill="#55506A" points="37.5,838.9219,27.5,842.9219,37.5,846.9219,33.5,842.9219" style="stroke: #55506A; stroke-width: 1.0;"/><line style="stroke: #55506A; stroke-width: 1.0;" x1="31.5" x2="1600" y1="842.9219" y2="842.9219"/><text fill="#000000" font-family="Arial" font-size="13" lengthAdjust="spacingAndGlyphs" textLength="195" x="716.25" y="837.856">Resolved: Customer -&gt; Orders</text><polygon fill="#55506A" points="1154,868.0547,1164,872.0547,1154,876.0547,1158,872.0547" style="stroke: #55506A; stroke-width: 1.0;"/><line style="stroke: #55506A; stroke-width: 1.0;" x1="26.5" x2="1160" y1="872.0547" y2="872.0547"/><text fill="#000000" font-family="Arial" font-size="13" lengthAdjust="spacingAndGlyphs" textLength="130" x="531.25" y="866.9888">DROP TABLE (finally)</text><!--MD5=[870e8eb3253dbf426654ac33fed973a8]
@startuml pgvector-e2e-pipeline
skinparam backgroundColor #FFFFFF
skinparam defaultFontName Arial
skinparam shadowing false
skinparam ArrowColor #55506A
skinparam sequenceMessageAlign center
skinparam participant {
  BackgroundColor #FFFFFF
  BorderColor #55506A
  FontSize 14
}
skinparam sequenceGroupBackgroundColor #FFF5E8

title Foundgine.Postgres.Vector — PostgresVectorE2ETests\nReal PostgreSQL 17 + pgvector physical proof of the lexical grounding pipeline

actor "Test" as T
participant "SemanticModelBuilder" as B
participant "SemanticLexiconProjection" as P
participant "ISemanticEmbeddingGenerator\n(HashedBagOfWords, test-only)" as E
participant "PgVectorSemanticLexicon\nIndexClient" as IX
database "PostgreSQL 17\n+ pgvector extension" as DB
participant "PgVectorSemanticLexical\nCandidateSource" as CS
participant "SemanticLexicalResolver" as R

T -> B : build Customer/Order contract\n(+ Orders relationship)
B -> T : SemanticContractSnapshot

T -> IX : IndexContractAsync(contract)
IX -> P : Build(contract)
P -> IX : lexicon entries\n(Entity, Node, Field, Relationship, ...)
IX -> E : EmbedManyAsync(searchText[])
E -> IX : float[][] embeddings
IX -> DB : EnsureSchemaAsync()\nCREATE EXTENSION vector;\nCREATE TABLE ... vector(N);\nCREATE INDEX ... USING hnsw
IX -> DB : TRUNCATE + INSERT each entry\n(canonical_name, kind, embedding, ...)

T -> CS : RetrieveAsync("Orders")
CS -> E : EmbedAsync("Orders")
CS -> DB : SELECT ... ORDER BY\nembedding <=> $query LIMIT n
DB -> CS : ranked rows + distance
CS -> T : SemanticLexicalCandidate[]\n(top match: Orders, VectorSimilarity evidence)

T -> R : Resolve("Customer Orders")
R -> CS : RetrieveAsync(token) x2
CS -> R : ranked candidates per token
R -> R : graph-constrained walk\n(SemanticContractSnapshot authoritative)
R -> T : Resolved: Customer -> Orders

T -> DB : DROP TABLE (finally)
@enduml

PlantUML version 1.2020.02(Sun Mar 01 10:22:07 UTC 2020)
(GPL source distribution)
Java Runtime: OpenJDK Runtime Environment
JVM: OpenJDK 64-Bit Server VM
Java Version: 21.0.12+8-1-24.04-Ubuntu
Operating System: Linux
Default Encoding: UTF-8
Language: en
Country: US
--></g></svg>