<svg xmlns="http://www.w3.org/2000/svg" width="900" height="754" viewBox="0 0 900 754" role="img" aria-labelledby="title desc"><title id="title">architecture-plantuml-04</title><desc id="desc">PlantUML diagram converted to standalone SVG.</desc><defs><marker id="arrow" viewBox="0 0 10 10" refX="9" refY="5" markerWidth="7" markerHeight="7" orient="auto-start-reverse"><path d="M 0 0 L 10 5 L 0 10 z" fill="#333"/></marker></defs><circle cx="330" cy="48" r="11" fill="#222"/><rect x="150.0" y="85" width="360" height="52" rx="16" fill="white" stroke="#333" stroke-width="1.6"/><text x="330" y="115" font-family="Arial, Helvetica, sans-serif" font-size="14px" font-weight="normal" text-anchor="middle" fill="#222"><tspan x="330" dy="0">Retrieval</tspan></text><line x1="330" y1="59" x2="330" y2="85" stroke="#333" stroke-width="1.6" marker-end="url(#arrow)"/><rect x="90" y="170" width="720" height="6" fill="#333"/><line x1="330" y1="137" x2="330" y2="170" stroke="#333" stroke-width="1.6" marker-end="url(#arrow)"/><rect x="117.85714285714286" y="198" width="150" height="62" rx="12" fill="white" stroke="#333" stroke-width="1.4"/><text x="192.85714285714286" y="226" font-family="Arial, Helvetica, sans-serif" font-size="12px" font-weight="normal" text-anchor="middle" fill="#222"><tspan x="192.85714285714286" dy="0">Relational</tspan><tspan x="192.85714285714286" dy="19">(structured)</tspan></text><line x1="192.85714285714286" y1="176" x2="192.85714285714286" y2="198" stroke="#333" stroke-width="1.4" marker-end="url(#arrow)"/><rect x="220.71428571428572" y="198" width="150" height="62" rx="12" fill="white" stroke="#333" stroke-width="1.4"/><text x="295.7142857142857" y="226" font-family="Arial, Helvetica, sans-serif" font-size="12px" font-weight="normal" text-anchor="middle" fill="#222"><tspan x="295.7142857142857" dy="0">Fuzzy</tspan><tspan x="295.7142857142857" dy="19">(pg_trgm)</tspan></text><line x1="295.7142857142857" y1="176" x2="295.7142857142857" y2="198" stroke="#333" stroke-width="1.4" marker-end="url(#arrow)"/><rect x="323.57142857142856" y="198" width="150" height="62" rx="12" fill="white" stroke="#333" stroke-width="1.4"/><text x="398.57142857142856" y="226" font-family="Arial, Helvetica, sans-serif" font-size="12px" font-weight="normal" text-anchor="middle" fill="#222"><tspan x="398.57142857142856" dy="0">FullText</tspan><tspan x="398.57142857142856" dy="19">(tsvector)</tspan></text><line x1="398.57142857142856" y1="176" x2="398.57142857142856" y2="198" stroke="#333" stroke-width="1.4" marker-end="url(#arrow)"/><rect x="426.42857142857144" y="198" width="150" height="62" rx="12" fill="white" stroke="#333" stroke-width="1.4"/><text x="501.42857142857144" y="226" font-family="Arial, Helvetica, sans-serif" font-size="12px" font-weight="normal" text-anchor="middle" fill="#222"><tspan x="501.42857142857144" dy="0">BM25</tspan><tspan x="501.42857142857144" dy="19">(pg_search)</tspan></text><line x1="501.42857142857144" y1="176" x2="501.42857142857144" y2="198" stroke="#333" stroke-width="1.4" marker-end="url(#arrow)"/><rect x="529.2857142857143" y="198" width="150" height="62" rx="12" fill="white" stroke="#333" stroke-width="1.4"/><text x="604.2857142857143" y="226" font-family="Arial, Helvetica, sans-serif" font-size="12px" font-weight="normal" text-anchor="middle" fill="#222"><tspan x="604.2857142857143" dy="0">AGE Graph</tspan><tspan x="604.2857142857143" dy="19">(Apache AGE)</tspan></text><line x1="604.2857142857143" y1="176" x2="604.2857142857143" y2="198" stroke="#333" stroke-width="1.4" marker-end="url(#arrow)"/><rect x="632.1428571428571" y="198" width="150" height="50" rx="12" fill="white" stroke="#333" stroke-width="1.4"/><text x="707.1428571428571" y="226" font-family="Arial, Helvetica, sans-serif" font-size="12px" font-weight="normal" text-anchor="middle" fill="#222"><tspan x="707.1428571428571" dy="0">Other strategies</tspan></text><line x1="707.1428571428571" y1="176" x2="707.1428571428571" y2="198" stroke="#333" stroke-width="1.4" marker-end="url(#arrow)"/><rect x="90" y="288" width="720" height="6" fill="#333"/><line x1="192.85714285714286" y1="260" x2="192.85714285714286" y2="288" stroke="#333" stroke-width="1.4" marker-end="url(#arrow)"/><line x1="295.7142857142857" y1="260" x2="295.7142857142857" y2="288" stroke="#333" stroke-width="1.4" marker-end="url(#arrow)"/><line x1="398.57142857142856" y1="260" x2="398.57142857142856" y2="288" stroke="#333" stroke-width="1.4" marker-end="url(#arrow)"/><line x1="501.42857142857144" y1="260" x2="501.42857142857144" y2="288" stroke="#333" stroke-width="1.4" marker-end="url(#arrow)"/><line x1="604.2857142857143" y1="260" x2="604.2857142857143" y2="288" stroke="#333" stroke-width="1.4" marker-end="url(#arrow)"/><line x1="707.1428571428571" y1="248" x2="707.1428571428571" y2="288" stroke="#333" stroke-width="1.4" marker-end="url(#arrow)"/><rect x="150.0" y="323" width="360" height="52" rx="16" fill="white" stroke="#333" stroke-width="1.6"/><text x="330" y="353" font-family="Arial, Helvetica, sans-serif" font-size="14px" font-weight="normal" text-anchor="middle" fill="#222"><tspan x="330" dy="0">Candidates + Evidence</tspan></text><line x1="330" y1="294" x2="330" y2="323" stroke="#333" stroke-width="1.6" marker-end="url(#arrow)"/><rect x="150.0" y="403" width="360" height="52" rx="16" fill="white" stroke="#333" stroke-width="1.6"/><text x="330" y="433" font-family="Arial, Helvetica, sans-serif" font-size="14px" font-weight="normal" text-anchor="middle" fill="#222"><tspan x="330" dy="0">Resolution</tspan></text><line x1="330" y1="375" x2="330" y2="403" stroke="#333" stroke-width="1.6" marker-end="url(#arrow)"/><circle cx="330" cy="501" r="11" fill="white" stroke="#222" stroke-width="2"/><circle cx="330" cy="501" r="5" fill="#222"/><line x1="330" y1="455" x2="330" y2="490" stroke="#333" stroke-width="1.6" marker-end="url(#arrow)"/></svg>
