<svg xmlns="http://www.w3.org/2000/svg" width="3690" height="270" viewBox="0 0 3690 270" role="img" aria-labelledby="title desc"><title id="title">architecture-plantuml-17</title><desc id="desc">PlantUML diagram converted to standalone SVG.</desc><defs><marker id="arrow" viewBox="0 0 10 10" refX="9" refY="5" markerWidth="7" markerHeight="7" orient="auto-start-reverse"><path d="M 0 0 L 10 5 L 0 10 z" fill="#333"/></marker></defs><rect x="1445.0" y="35" width="150" height="46" rx="12" fill="white" stroke="#333" stroke-width="1.5"/><text x="1520.0" y="60" font-family="Arial, Helvetica, sans-serif" font-size="13px" font-weight="bold" text-anchor="middle" fill="#222"><tspan x="1520.0" dy="0">Adapters</tspan></text><line x1="1520.0" y1="81" x2="380.0" y2="125" stroke="#555" stroke-width="1.4" marker-end="url(#arrow)"/><rect x="305.0" y="125" width="150" height="46" rx="12" fill="white" stroke="#333" stroke-width="1.5"/><text x="380.0" y="150" font-family="Arial, Helvetica, sans-serif" font-size="13px" font-weight="normal" text-anchor="middle" fill="#222"><tspan x="380.0" dy="0">JSON</tspan></text><line x1="1520.0" y1="81" x2="1140.0" y2="125" stroke="#555" stroke-width="1.4" marker-end="url(#arrow)"/><rect x="1065.0" y="125" width="150" height="46" rx="12" fill="white" stroke="#333" stroke-width="1.5"/><text x="1140.0" y="150" font-family="Arial, Helvetica, sans-serif" font-size="13px" font-weight="normal" text-anchor="middle" fill="#222"><tspan x="1140.0" dy="0">GraphQL</tspan></text><line x1="1520.0" y1="81" x2="1900.0" y2="125" stroke="#555" stroke-width="1.4" marker-end="url(#arrow)"/><rect x="1825.0" y="125" width="150" height="46" rx="12" fill="white" stroke="#333" stroke-width="1.5"/><text x="1900.0" y="150" font-family="Arial, Helvetica, sans-serif" font-size="13px" font-weight="normal" text-anchor="middle" fill="#222"><tspan x="1900.0" dy="0">MCP</tspan></text><line x1="1520.0" y1="81" x2="2660.0" y2="125" stroke="#555" stroke-width="1.4" marker-end="url(#arrow)"/><rect x="2585.0" y="125" width="150" height="46" rx="12" fill="white" stroke="#333" stroke-width="1.5"/><text x="2660.0" y="150" font-family="Arial, Helvetica, sans-serif" font-size="13px" font-weight="normal" text-anchor="middle" fill="#222"><tspan x="2660.0" dy="0">AI</tspan></text><rect x="3060.0" y="35" width="150" height="46" rx="12" fill="white" stroke="#333" stroke-width="1.5"/><text x="3135.0" y="60" font-family="Arial, Helvetica, sans-serif" font-size="13px" font-weight="bold" text-anchor="middle" fill="#222"><tspan x="3135.0" dy="0">│</tspan></text><rect x="3250.0" y="35" width="150" height="46" rx="12" fill="white" stroke="#333" stroke-width="1.5"/><text x="3325.0" y="60" font-family="Arial, Helvetica, sans-serif" font-size="13px" font-weight="bold" text-anchor="middle" fill="#222"><tspan x="3325.0" dy="0">▼</tspan></text><rect x="3440.0" y="35" width="150" height="46" rx="12" fill="white" stroke="#333" stroke-width="1.5"/><text x="3515.0" y="60" font-family="Arial, Helvetica, sans-serif" font-size="13px" font-weight="bold" text-anchor="middle" fill="#222"><tspan x="3515.0" dy="0">Foundgine</tspan></text></svg>
