<svg xmlns="http://www.w3.org/2000/svg" width="700" height="1280" viewBox="0 0 700 1280" role="img" aria-labelledby="title desc"><title id="title">runtime-plantuml-04</title><desc id="desc">PlantUML diagram converted to standalone SVG.</desc><defs><marker id="arrow" viewBox="0 0 10 10" refX="9" refY="5" markerWidth="7" markerHeight="7" orient="auto-start-reverse"><path d="M 0 0 L 10 5 L 0 10 z" fill="#333"/></marker></defs><circle cx="330" cy="40" r="10" fill="#222"/><rect x="150.0" y="73" width="360" height="52" rx="16" fill="white" stroke="#333" stroke-width="1.6"/><text x="330" y="103" font-family="Arial, Helvetica, sans-serif" font-size="14px" font-weight="normal" text-anchor="middle" fill="#222"><tspan x="330" dy="0">Intent</tspan></text><line x1="330" y1="50" x2="330" y2="73" stroke="#333" stroke-width="1.6" marker-end="url(#arrow)"/><rect x="150.0" y="153" width="360" height="52" rx="16" fill="white" stroke="#333" stroke-width="1.6"/><text x="330" y="183" font-family="Arial, Helvetica, sans-serif" font-size="14px" font-weight="normal" text-anchor="middle" fill="#222"><tspan x="330" dy="0">Resolve into SemanticOperationGraph</tspan></text><line x1="330" y1="125" x2="330" y2="153" stroke="#333" stroke-width="1.6" marker-end="url(#arrow)"/><rect x="150.0" y="233" width="360" height="52" rx="16" fill="white" stroke="#333" stroke-width="1.6"/><text x="330" y="263" font-family="Arial, Helvetica, sans-serif" font-size="14px" font-weight="normal" text-anchor="middle" fill="#222"><tspan x="330" dy="0">Validate graph + resource limits</tspan></text><line x1="330" y1="205" x2="330" y2="233" stroke="#333" stroke-width="1.6" marker-end="url(#arrow)"/><rect x="150.0" y="313" width="360" height="52" rx="16" fill="white" stroke="#333" stroke-width="1.6"/><text x="330" y="343" font-family="Arial, Helvetica, sans-serif" font-size="14px" font-weight="normal" text-anchor="middle" fill="#222"><tspan x="330" dy="0">Authorize graph against SemanticContractSnapshot</tspan></text><line x1="330" y1="285" x2="330" y2="313" stroke="#333" stroke-width="1.6" marker-end="url(#arrow)"/><rect x="150.0" y="393" width="360" height="52" rx="16" fill="white" stroke="#333" stroke-width="1.6"/><text x="330" y="423" font-family="Arial, Helvetica, sans-serif" font-size="14px" font-weight="normal" text-anchor="middle" fill="#222"><tspan x="330" dy="0">Authorization evidence</tspan></text><line x1="330" y1="365" x2="330" y2="393" stroke="#333" stroke-width="1.6" marker-end="url(#arrow)"/><rect x="150.0" y="473" width="360" height="52" rx="16" fill="white" stroke="#333" stroke-width="1.6"/><text x="330" y="503" font-family="Arial, Helvetica, sans-serif" font-size="14px" font-weight="normal" text-anchor="middle" fill="#222"><tspan x="330" dy="0">Plan authorized graph</tspan></text><line x1="330" y1="445" x2="330" y2="473" stroke="#333" stroke-width="1.6" marker-end="url(#arrow)"/><rect x="150.0" y="553" width="360" height="52" rx="16" fill="white" stroke="#333" stroke-width="1.6"/><text x="330" y="583" font-family="Arial, Helvetica, sans-serif" font-size="14px" font-weight="normal" text-anchor="middle" fill="#222"><tspan x="330" dy="0">SemanticPlan.AuthorizationBinding</tspan></text><line x1="330" y1="525" x2="330" y2="553" stroke="#333" stroke-width="1.6" marker-end="url(#arrow)"/><rect x="150.0" y="633" width="360" height="52" rx="16" fill="white" stroke="#333" stroke-width="1.6"/><text x="330" y="663" font-family="Arial, Helvetica, sans-serif" font-size="14px" font-weight="normal" text-anchor="middle" fill="#222"><tspan x="330" dy="0">Security-preserving optimization</tspan></text><line x1="330" y1="605" x2="330" y2="633" stroke="#333" stroke-width="1.6" marker-end="url(#arrow)"/><rect x="150.0" y="713" width="360" height="52" rx="16" fill="white" stroke="#333" stroke-width="1.6"/><text x="330" y="743" font-family="Arial, Helvetica, sans-serif" font-size="14px" font-weight="normal" text-anchor="middle" fill="#222"><tspan x="330" dy="0">ExecutionIR</tspan></text><line x1="330" y1="685" x2="330" y2="713" stroke="#333" stroke-width="1.6" marker-end="url(#arrow)"/><rect x="150.0" y="793" width="360" height="52" rx="16" fill="white" stroke="#333" stroke-width="1.6"/><text x="330" y="823" font-family="Arial, Helvetica, sans-serif" font-size="14px" font-weight="normal" text-anchor="middle" fill="#222"><tspan x="330" dy="0">Provider compilation</tspan></text><line x1="330" y1="765" x2="330" y2="793" stroke="#333" stroke-width="1.6" marker-end="url(#arrow)"/><rect x="150.0" y="873" width="360" height="52" rx="16" fill="white" stroke="#333" stroke-width="1.6"/><text x="330" y="903" font-family="Arial, Helvetica, sans-serif" font-size="14px" font-weight="normal" text-anchor="middle" fill="#222"><tspan x="330" dy="0">Provider plan inherits authorization binding</tspan></text><line x1="330" y1="845" x2="330" y2="873" stroke="#333" stroke-width="1.6" marker-end="url(#arrow)"/><rect x="150.0" y="953" width="360" height="52" rx="16" fill="white" stroke="#333" stroke-width="1.6"/><text x="330" y="983" font-family="Arial, Helvetica, sans-serif" font-size="14px" font-weight="normal" text-anchor="middle" fill="#222"><tspan x="330" dy="0">Provider security proof</tspan></text><line x1="330" y1="925" x2="330" y2="953" stroke="#333" stroke-width="1.6" marker-end="url(#arrow)"/><rect x="150.0" y="1033" width="360" height="52" rx="16" fill="white" stroke="#333" stroke-width="1.6"/><text x="330" y="1063" font-family="Arial, Helvetica, sans-serif" font-size="14px" font-weight="normal" text-anchor="middle" fill="#222"><tspan x="330" dy="0">Final execution gate</tspan></text><line x1="330" y1="1005" x2="330" y2="1033" stroke="#333" stroke-width="1.6" marker-end="url(#arrow)"/><rect x="150.0" y="1113" width="360" height="52" rx="16" fill="white" stroke="#333" stroke-width="1.6"/><text x="330" y="1143" font-family="Arial, Helvetica, sans-serif" font-size="14px" font-weight="normal" text-anchor="middle" fill="#222"><tspan x="330" dy="0">Execute</tspan></text><line x1="330" y1="1085" x2="330" y2="1113" stroke="#333" stroke-width="1.6" marker-end="url(#arrow)"/><circle cx="330" cy="1205" r="10" fill="white" stroke="#222" stroke-width="2"/><circle cx="330" cy="1205" r="5" fill="#222"/><line x1="330" y1="1165" x2="330" y2="1195" stroke="#333" stroke-width="1.6" marker-end="url(#arrow)"/></svg>
